<svg xmlns="http://www.w3.org/2000/svg" width="33.724" height="32.952" viewBox="0 0 33.724 32.952">
  <path id="Path_89" data-name="Path 89" d="M343.047,288.361c7.664-2,14.558-8.472,16.548-16.125a.108.108,0,0,1,.105-.083h.308a.116.116,0,0,1,.109.083c2,7.659,8.881,14.138,16.512,16.125a.111.111,0,0,1,.079.1v.327a.1.1,0,0,1-.079.1c-7.664,2.008-14.548,8.472-16.512,16.132a.113.113,0,0,1-.109.083h-.322a.105.105,0,0,1-.105-.083c-2-7.66-8.885-14.138-16.512-16.132a.1.1,0,0,1-.083-.1v-.327a.116.116,0,0,1,.062-.1" transform="translate(-342.985 -272.153)" fill="#6a4cd7"/>
</svg>
