<?xml version="1.0" encoding="UTF-8"?>
<svg width="1024px" height="1024px" viewBox="0 0 1024 1024" xmlns="http://www.w3.org/2000/svg" xmlns:xlink="http://www.w3.org/1999/xlink" version="1.1">
 <!-- Generated by Pixelmator Pro 2.0.1 -->
 <path id="Path" d="M184.784 439.296 C173.809 450.102 169.51 465.983 173.534 480.849 177.559 495.716 189.284 507.259 204.211 511.052 219.138 514.845 234.95 510.299 245.584 499.157 L471.333 270.08 471.333 853.333 C471.333 868.577 479.466 882.662 492.667 890.284 505.868 897.905 522.132 897.905 535.333 890.284 548.534 882.662 556.667 868.577 556.667 853.333 L556.667 270.293 782.16 499.2 C798.767 515.551 825.422 515.551 842.029 499.201 858.636 482.85 859.051 456.198 842.96 439.339 L551.845 143.872 C541.823 133.71 528.145 127.988 513.872 127.988 499.599 127.988 485.921 133.71 475.899 143.872 L184.784 439.339 Z" fill="#ffffff" fill-opacity="1" stroke="none"/>
</svg>
