<svg xmlns="http://www.w3.org/2000/svg" width="19.047" height="19" viewBox="0 0 19.047 19"><defs><style>.a,.b,.e{fill:none;}.a,.b,.c{stroke:#031a62;}.a{opacity:0;}.b{stroke-linecap:round;}.b,.c{stroke-width:1.5px;}.c{fill:#031a62;}.d{stroke:none;}</style></defs><g transform="translate(0.133 0.133)"><g class="a" transform="translate(-0.133 -0.133)"><rect class="d" width="19" height="19"/><rect class="e" x="0.5" y="0.5" width="18" height="18"/></g><g transform="translate(0.709 1.325)"><path class="b" d="M1,2H2.933A1.618,1.618,0,0,1,4.509,3.278l.526,2.394m0,0,.891,4.955a4.857,4.857,0,0,0,4.764,4.02h2.182a4.854,4.854,0,0,0,4.722-3.81l.825-3.669a1.221,1.221,0,0,0-1.181-1.5Z" transform="translate(-1 -2)"/><ellipse class="c" cx="0.79" cy="0.793" rx="0.79" ry="0.793" transform="translate(5.257 14.63)"/><ellipse class="c" cx="0.79" cy="0.793" rx="0.79" ry="0.793" transform="translate(14.985 14.63)"/></g></g></svg>