<svg xmlns="http://www.w3.org/2000/svg" width="27.46" height="32.953" viewBox="0 0 27.46 32.953"><defs><style>.a{fill:#031a62;}.b{fill:#ff8700;}.c{fill:#6a4cd7;}.d{fill:#00a3ff;}.e{fill:#ff003a;}</style></defs><g transform="translate(14413.143 20131)"><path class="a" d="M216.9,456.284h-13.73V460.4l13.73,5.494,13.728-5.494v-4.117Z" transform="translate(-14616.308 -20563.941)"/><path class="b" d="M203.165,265.063H216.9v-13.73h-13.73Zm6.866-1.717a5.151,5.151,0,1,1,5.148-5.154h0a5.149,5.149,0,0,1-5.144,5.153Z" transform="translate(-14616.308 -20382.332)"/><path class="c" d="M323.722,265.064h13.73v-13.73h-13.73Zm1.6-6.947a7.42,7.42,0,0,0,5.177-5.045.034.034,0,0,1,.033-.026h.1a.036.036,0,0,1,.034.026,7.417,7.417,0,0,0,5.166,5.045.035.035,0,0,1,.025.033v.1a.031.031,0,0,1-.025.031,7.4,7.4,0,0,0-5.166,5.047.035.035,0,0,1-.034.026h-.1a.033.033,0,0,1-.033-.026,7.427,7.427,0,0,0-5.166-5.047.031.031,0,0,1-.026-.031v-.1a.036.036,0,0,1,.019-.033" transform="translate(-14723.135 -20382.332)"/><path class="d" d="M203.165,381.5h0v-9.611h13.73Z" transform="translate(-14616.308 -20489.16)"/><path class="e" d="M323.723,381.5l6.844-4.792a.03.03,0,0,1,.04,0l6.846,4.792v-9.611h-13.73Z" transform="translate(-14723.136 -20489.16)"/></g></svg>